<svg width="24" height="24" viewBox="0 0 24 24" fill="none" xmlns="http://www.w3.org/2000/svg">
<path fill-rule="evenodd" clip-rule="evenodd" d="M6.09182 7.8885C5.45993 7.35147 5.25 6.83329 5.25 6.45557C5.25 5.94766 5.62957 5.18579 6.90423 4.46562C8.13318 3.77128 9.93172 3.29443 12 3.29443C14.0683 3.29443 15.8668 3.77128 17.0958 4.46562C18.3704 5.18579 18.75 5.94766 18.75 6.45557C18.75 6.83329 18.5401 7.35148 17.9082 7.88851C17.8772 7.91479 17.8453 7.94113 17.8123 7.96749C17.6131 8.12675 17.3761 8.28714 17.0958 8.44551C15.8668 9.13985 14.0683 9.6167 12 9.6167C10.6695 9.6167 9.4507 9.41938 8.42328 9.09378C7.85352 8.91322 7.34263 8.6932 6.90423 8.44551C6.62391 8.28714 6.38689 8.12675 6.18767 7.96749C6.15469 7.94112 6.12275 7.91479 6.09182 7.8885ZM17.25 10.0513C15.8237 10.7168 13.9946 11.1167 12 11.1167C10.0054 11.1167 8.17632 10.7168 6.75 10.0513C6.54708 9.9566 6.3523 9.85654 6.16637 9.75149C6.11534 9.72266 6.065 9.69346 6.01536 9.66392C5.7377 9.49866 5.48188 9.32223 5.25 9.13621V17.4556C5.25 18.0585 5.65871 18.7483 6.60889 19.3636C6.74462 19.4515 6.89141 19.5378 7.04964 19.6222C7.20321 19.7041 7.3649 19.7825 7.53415 19.8569C8.71888 20.3778 10.2737 20.7056 12 20.7056C13.9729 20.7056 15.7218 20.2774 16.9504 19.6222C18.2162 18.9471 18.75 18.1447 18.75 17.4556V9.13628C18.5145 9.32526 18.2547 9.50384 17.9732 9.67071C17.9273 9.69794 17.8807 9.72487 17.8336 9.75149C17.6477 9.85654 17.4529 9.9566 17.25 10.0513ZM19.5241 4.54099C19.8938 5.00405 20.1336 5.50737 20.217 6.03609C20.2389 6.17427 20.25 6.31418 20.25 6.45557V17.4556C20.25 17.5913 20.2409 17.7245 20.2232 17.8551C20.0439 19.1784 18.9865 20.2363 17.6562 20.9458C16.1704 21.7382 14.1693 22.2056 12 22.2056C9.83068 22.2056 7.82961 21.7382 6.34376 20.9458C4.88214 20.1662 3.75 18.9662 3.75 17.4556V6.45557C3.75 6.31418 3.76114 6.17427 3.78296 6.03609C3.86619 5.50929 4.10493 5.00571 4.47586 4.54099C4.88916 4.02333 5.4649 3.55597 6.16637 3.15965C7.65921 2.31621 9.72167 1.79443 12 1.79443C14.2783 1.79443 16.3408 2.31621 17.8336 3.15965C18.5351 3.55597 19.1108 4.02333 19.5241 4.54099Z" fill="#2636A2"/>
</svg>
