<svg width="24" height="24" viewBox="0 0 24 24" fill="none" xmlns="http://www.w3.org/2000/svg">
<path fill-rule="evenodd" clip-rule="evenodd" d="M7.94505 7.60484C7.59927 7.80916 7.19593 7.92641 6.76521 7.92641C5.48248 7.92641 4.44263 6.88656 4.44263 5.60383C4.44263 4.3211 5.48248 3.28125 6.76521 3.28125C8.04793 3.28125 9.08779 4.3211 9.08779 5.60383C9.08779 6.03456 8.97054 6.43791 8.76621 6.78369L11.9725 9.98999C12.3183 9.78569 12.7216 9.66846 13.1523 9.66846C13.6331 9.66846 14.0798 9.81457 14.4504 10.0648L15.8904 8.67212C15.6284 8.29608 15.4747 7.83887 15.4747 7.34577C15.4747 6.06305 16.5146 5.02319 17.7973 5.02319C19.08 5.02319 20.1199 6.06305 20.1199 7.34577C20.1199 8.6285 19.08 9.66835 17.7973 9.66835C17.4306 9.66835 17.0837 9.58335 16.7752 9.43196L15.2213 10.9348C15.3834 11.2517 15.4749 11.6107 15.4749 11.991C15.4749 12.4218 15.3576 12.8251 15.1533 13.1709L17.7788 15.7964C18.1246 15.5921 18.528 15.4749 18.9587 15.4749C20.2414 15.4749 21.2813 16.5147 21.2813 17.7974C21.2813 19.0802 20.2414 20.12 18.9587 20.12C17.676 20.12 16.6361 19.0802 16.6361 17.7974C16.6361 17.3667 16.7534 16.9634 16.9577 16.6176L14.3321 13.992C13.9864 14.1964 13.583 14.3136 13.1523 14.3136C13.1158 14.3136 13.0795 14.3128 13.0434 14.3111L12.1694 17.0205L12.049 16.9816C12.7111 17.3908 13.1522 18.1233 13.1522 18.9588C13.1522 20.2415 12.1124 21.2814 10.8297 21.2814C9.54694 21.2814 8.50708 20.2415 8.50708 18.9588C8.50708 17.6761 9.54694 16.6362 10.8297 16.6362C10.9106 16.6362 10.9905 16.6404 11.0692 16.6484L11.9337 13.9686C11.6268 13.7791 11.3673 13.5201 11.1771 13.2136L7.90406 14.5706C7.91879 14.6763 7.92641 14.7843 7.92641 14.8941C7.92641 16.1768 6.88656 17.2167 5.60383 17.2167C4.3211 17.2167 3.28125 16.1768 3.28125 14.8941C3.28125 13.6114 4.3211 12.5715 5.60383 12.5715C6.36237 12.5715 7.03597 12.9352 7.45984 13.4976L10.8322 12.0994C10.8305 12.0635 10.8297 12.0274 10.8297 11.991C10.8297 11.5603 10.947 11.1569 11.1513 10.8111L7.94505 7.60484ZM7.9265 5.60383C7.9265 6.24519 7.40657 6.76512 6.76521 6.76512C6.12384 6.76512 5.60392 6.24519 5.60392 5.60383C5.60392 4.96247 6.12384 4.44254 6.76521 4.44254C7.40657 4.44254 7.9265 4.96247 7.9265 5.60383ZM17.7973 8.50706C18.4387 8.50706 18.9586 7.98714 18.9586 7.34577C18.9586 6.70441 18.4387 6.18448 17.7973 6.18448C17.1559 6.18448 16.636 6.70441 16.636 7.34577C16.636 7.98714 17.1559 8.50706 17.7973 8.50706ZM13.1523 13.1523C13.7937 13.1523 14.3136 12.6324 14.3136 11.991C14.3136 11.3497 13.7937 10.8297 13.1523 10.8297C12.5109 10.8297 11.991 11.3497 11.991 11.991C11.991 12.6324 12.5109 13.1523 13.1523 13.1523ZM10.8297 20.1201C11.471 20.1201 11.991 19.6002 11.991 18.9588C11.991 18.3174 11.471 17.7975 10.8297 17.7975C10.1883 17.7975 9.66837 18.3174 9.66837 18.9588C9.66837 19.6002 10.1883 20.1201 10.8297 20.1201ZM6.76512 14.8941C6.76512 15.5355 6.24519 16.0554 5.60383 16.0554C4.96247 16.0554 4.44254 15.5355 4.44254 14.8941C4.44254 14.2528 4.96247 13.7328 5.60383 13.7328C6.24519 13.7328 6.76512 14.2528 6.76512 14.8941ZM18.9587 18.9587C19.6001 18.9587 20.12 18.4388 20.12 17.7974C20.12 17.1561 19.6001 16.6361 18.9587 16.6361C18.3173 16.6361 17.7974 17.1561 17.7974 17.7974C17.7974 18.4388 18.3173 18.9587 18.9587 18.9587Z" fill="#F18D10"/>
</svg>
